<?xml version="1.0" encoding="UTF-8" standalone="no"?>
<svg 
    role="img" 
    xmlns="http://www.w3.org/2000/svg" 
    width="1000mm"
    height="1000mm"
    viewBox="0 0 1000 1000"
    style="max-width:1.6em; height: auto;">
    
    <path 
        id="path" 
        style="opacity:1;vector-effect:none;fill:#000000;fill-opacity:1;"
        d=" M 500 88C 564 88 628 108 680 144C 794 222 843 379 794 507C 744 612 693 716 643 821C 617 870 601 930 548 957C 494 988 426 956 398 904C 340 788 285 670 228 553C 187 480 176 390 201 309C 237 182 362 88 494 88C 496 88 498 88 500 88C 500 88 500 88 500 88M 387 400C 387 462 438 512 500 512C 562 512 613 462 613 400C 613 338 562 287 500 287C 438 287 387 338 387 400C 387 400 387 400 387 400"
        transform="">
    </path>    
</svg>